<svg xmlns="http://www.w3.org/2000/svg" width="318" height="130" viewBox="-8 0 318 130"><g transform="translate(-18.90,18.60) scale(0.9)"><polygon points="21,36 35,36 52,86 38,86" fill="#0C2A3A"/><polygon points="38,86 52,86 67,52 53,52" fill="#3FB6C9"/><polygon points="53,52 67,52 82,86 68,86" fill="#3FB6C9"/><polygon points="68,86 82,86 99,36 85,36" fill="#0C2A3A"/></g><path transform="translate(77.20,96.00) scale(0.08200,-0.08200)" d="M274 566Q333 566 377.5 542.0Q422 518 446 479V558H617V0H446V79Q421 40 376.5 16.0Q332 -8 273 -8Q205 -8 149.0 27.5Q93 63 60.5 128.5Q28 194 28 280Q28 366 60.5 431.0Q93 496 149.0 531.0Q205 566 274 566ZM324 417Q273 417 237.5 380.5Q202 344 202 280Q202 216 237.5 178.5Q273 141 324 141Q375 141 410.5 178.0Q446 215 446 279Q446 343 410.5 380.0Q375 417 324 417Z" fill="#0C2A3A"/><path transform="translate(130.42,96.00) scale(0.08200,-0.08200)" d="M32 183H201Q204 154 228.0 136.0Q252 118 287 118Q319 118 336.5 130.5Q354 143 354 163Q354 187 329.0 198.5Q304 210 248 224Q188 238 148.0 253.5Q108 269 79.0 302.5Q50 336 50 393Q50 441 76.5 480.5Q103 520 154.5 543.0Q206 566 277 566Q382 566 442.5 514.0Q503 462 512 376H354Q350 405 328.5 422.0Q307 439 272 439Q242 439 226.0 427.5Q210 416 210 396Q210 372 235.5 360.0Q261 348 315 336Q377 320 416.0 304.5Q455 289 484.5 254.5Q514 220 515 162Q515 113 487.5 74.5Q460 36 408.5 14.0Q357 -8 289 -8Q216 -8 159.0 17.0Q102 42 69.0 85.5Q36 129 32 183Z" fill="#0C2A3A"/><path transform="translate(173.71,96.00) scale(0.08200,-0.08200)" d="M617 326V0H447V303Q447 359 418.0 390.0Q389 421 340 421Q291 421 262.0 390.0Q233 359 233 303V0H62V740H233V483Q259 520 304.0 542.0Q349 564 405 564Q501 564 559.0 500.5Q617 437 617 326Z" fill="#0C2A3A"/><path transform="translate(226.52,96.00) scale(0.08200,-0.08200)" d="M233 740V0H62V740Z" fill="#0C2A3A"/><path transform="translate(248.25,96.00) scale(0.08200,-0.08200)" d="M632 558 282 -265H98L226 19L-1 558H190L319 209L447 558Z" fill="#0C2A3A"/></svg>